<svg width="270" height="56" viewBox="0 0 270 56" fill="none" xmlns="http://www.w3.org/2000/svg">
<path d="M28.118 56C43.3011 56 55.6094 43.6386 55.6094 28.3901C55.6094 13.1415 43.3011 0.780151 28.118 0.780151C12.9349 0.780151 0.626587 13.1415 0.626587 28.3901C0.626587 43.6386 12.9349 56 28.118 56Z" fill="white"/>
<path d="M50.1803 40.1479C49.7054 41.1361 49.1731 42.0744 48.5889 42.9616C48.8071 42.8173 48.9768 42.6507 49.0999 42.4638C49.6328 41.58 50.3229 40.3881 50.7956 39.47C52.5783 35.3435 53.2243 32.988 53.2985 27.9847C53.3234 28.537 53.1018 28.9879 52.6091 29.3146C52.6252 32.9837 51.846 36.6833 50.1803 40.1479Z" fill="url(#paint0_radial)"/>
<path d="M3.38727 33.2559C3.61555 34.2438 3.95193 35.554 4.24545 36.5243C4.79003 38.0356 6.98013 40.1824 10.3212 42.4905C9.98896 39.5193 10.4541 35.9128 11.7678 31.9841C6.31317 28.2156 3.17267 24.7725 3.56969 22.8264C3.18196 24.8872 2.46045 28.7229 3.38727 33.2559Z" fill="url(#paint1_radial)"/>
<path d="M51.4104 21.6672C47.4615 28.1739 15.1047 9.86054 17.8554 5.40295C16.7286 5.90252 15.5123 6.54386 14.2286 7.38889C12.324 8.76007 11.9277 9.04552 10.2353 10.6737C8.48917 12.5878 8.42133 12.6626 7.58303 13.8438C6.14141 16.0726 6.08526 16.1596 5.43878 17.4957C5.02648 18.4504 4.49848 19.734 4.15131 20.7146C3.30542 23.4893 10.1824 29.5679 20.9154 35.2423C32.9954 41.629 45.3856 45.0852 48.5889 42.9617C49.1732 42.0745 49.7055 41.1362 50.1804 40.148C53.0242 34.232 53.2848 27.6319 51.4104 21.6672Z" fill="url(#paint2_radial)"/>
<path d="M52.4534 27.2985C52.9666 26.9583 53.2723 26.4772 53.2015 25.8839C53.1084 25.2312 53.0011 24.3579 52.8799 23.7099C52.2002 20.7684 51.7013 19.0521 50.0672 16.0341L49.2423 14.6714C49.8322 15.5611 49.784 16.2615 49.1809 16.6613C51.0188 19.9372 52.0851 23.5457 52.5533 27.2985" fill="url(#paint3_radial)"/>
<path d="M7.42576 19.4607C6.52662 19.4607 5.42257 19.4491 4.84323 19.833C4.48597 20.0698 4.25789 20.3662 4.15149 20.7147C4.51095 19.7385 5.01436 18.4451 5.43876 17.4958C6.71883 15.0866 6.74341 15.0405 7.58301 13.8439C9.19886 11.7379 9.22943 11.6975 10.2354 10.6737C10.5343 10.394 10.7916 10.1532 11.0223 9.93958C11.0223 9.93947 7.42576 15.1934 7.42576 19.4607Z" fill="url(#paint4_radial)"/>
<path d="M34.5795 46.6569C32.3845 44.7692 29.1618 42.6288 25.2498 40.5603C16.27 35.8127 7.06016 33.2433 4.67863 34.8221C4.10518 35.2021 3.9799 35.7879 4.24545 36.5243C3.95882 35.5523 3.60876 34.2454 3.38727 33.2562C3.00603 30.7676 2.53129 27.6708 3.56969 22.8267C3.65162 22.4222 3.88759 22.0823 4.28661 21.8177C7.44399 19.725 19.6545 23.1311 31.5597 29.4254C36.7456 32.1674 41.0189 35.005 43.9288 37.5083C41.3541 41.2204 38.108 44.3485 34.5795 46.6569Z" fill="url(#paint5_radial)"/>
<path d="M37.197 52.0148C38.3629 51.2421 37.6763 49.6187 35.6178 47.606C39.3118 45.4486 42.6765 42.4289 45.3057 38.7661C47.7292 41.1365 48.718 43.0993 47.8262 44.2265C47.0718 45.106 46.0244 46.2434 45.2051 47.0618C43.2348 48.7496 43.1972 48.7821 42.006 49.5774C40.4988 50.576 38.8842 51.3921 37.197 52.0148ZM24.6017 53.0659C28.2457 53.7439 31.9162 53.564 35.3496 52.6108C37.5489 51.1536 32.6092 46.4173 24.3169 42.0332C19.8614 39.6776 15.3448 37.9031 11.7783 36.9907C12.0686 40.4118 12.8847 43.5648 14.2104 46.1798C15.7829 46.5819 17.774 47.3644 19.7379 48.4026C23.3936 50.3355 25.5712 52.4233 24.6017 53.0659Z" fill="url(#paint6_radial)"/>
<path d="M22.7263 7.52848C25.044 5.54897 27.5166 4.29218 29.9507 3.84729C32.877 4.59559 36.5823 6.05155 40.237 7.9839C44.7654 10.378 48.0748 12.9 49.2495 14.6714L50.0741 16.0342C51.3346 18.4752 52.153 20.21 52.8872 23.7099C52.9871 24.3616 53.1369 25.2286 53.2084 25.884C52.8944 23.2587 47.1572 18.4365 38.5963 13.9105C32.9573 10.929 27.2409 8.68294 22.7263 7.52848Z" fill="url(#paint7_linear)"/>
<path d="M33.3817 28.0095C33.8787 27.0366 34.366 26.0537 34.8408 25.0657C36.5064 21.6009 37.8398 18.4457 38.8099 15.7466C47.4762 20.4362 53.1817 25.3534 53.3006 27.9807C53.2134 32.6959 52.6754 35.1647 50.7977 39.4659C50.3133 40.3775 49.6468 41.5834 49.1022 42.4597C50.7507 39.9642 44.1341 33.8281 33.3817 28.0095Z" fill="url(#paint8_linear)"/>
<path d="M10.6138 11.3275C9.64596 13.0963 9.06701 15.0048 8.89437 17C8.40294 22.6729 11.2952 28.1106 16.2631 30.8531C20.5271 33.2071 25.4761 33.142 29.5363 31.1199L30.7287 33.2939C30.4074 33.829 30.3697 34.5159 30.6912 35.1026L36.7668 46.1812C37.2467 47.0574 38.343 47.376 39.2149 46.8935C39.7627 46.5907 40.0911 46.0448 40.1414 45.4627C40.1721 45.1181 40.1034 44.7605 39.9249 44.4346L33.8489 33.3555C33.5271 32.769 32.9289 32.4339 32.3074 32.4207L31.0975 30.2151C32.9586 28.9737 34.556 27.2782 35.7044 25.1798C36.6729 23.4112 37.2513 21.5027 37.4238 19.5078C37.9154 13.8345 35.023 8.39715 30.055 5.65459C23.138 1.83533 14.4164 4.38033 10.6138 11.3275Z" fill="url(#paint9_radial)"/>
<path d="M31.6897 9.05899C35.3151 12.4516 36.6072 17.6823 34.9814 22.3846C34.4099 24.0364 33.5128 25.5295 32.3151 26.8207C27.6113 31.8908 19.6774 32.1722 14.6294 27.448C11.0039 24.0557 9.71182 18.8251 11.338 14.1227C11.9094 12.47 12.8064 10.9776 14.0043 9.68629C18.7079 4.61635 26.6413 4.33531 31.6897 9.05899Z" fill="url(#paint10_radial)"/>
<path d="M25.3424 14.0428C28.0296 13.6581 30.5187 15.5342 30.9018 18.2331C31.2849 20.9321 29.417 23.4319 26.7298 23.8166C24.0423 24.2014 21.5531 22.3255 21.1701 19.6266C20.7869 16.9275 22.6548 14.4277 25.3424 14.0428Z" fill="#5598E5"/>
<path d="M22.0483 23.7576C21.2146 23.2653 19.596 22.3062 18.6873 20.844C17.4492 18.8891 16.3846 15.7618 17.268 13.236C17.5613 12.3975 17.1226 11.4787 16.2871 11.1838C15.4516 10.8892 14.5368 11.3302 14.2437 12.1692C12.9598 15.8386 14.3103 20.2969 16.3186 23.0997C17.1169 24.8838 17.6212 27.328 18.107 29.7507C22.3158 31.6119 27.3204 31.0205 30.9959 28.0517C28.8968 25.5974 25.065 25.5395 22.0483 23.7576Z" fill="#5598E5"/>
<path d="M181.505 20.7562H180.402C180.188 20.7562 179.989 20.6888 179.805 20.5541C179.621 20.4194 179.544 20.1879 179.575 19.8581C179.728 18.3616 179.185 17.1267 177.944 16.1536C176.703 15.1811 175.072 14.6942 173.051 14.6942C170.661 14.6942 168.632 15.151 166.962 16.0638C165.293 16.9773 164.259 18.3167 163.861 20.0826C163.769 20.5317 163.723 20.9211 163.723 21.2501C163.723 22.1482 164.006 22.9046 164.573 23.5178C165.14 24.1317 165.959 24.6853 167.031 25.1792C168.103 25.6731 169.665 26.2646 171.718 26.9529C174.659 27.9408 176.787 28.9665 178.105 30.0288C179.422 31.0917 180.081 32.4915 180.081 34.2273C180.081 34.7366 180.004 35.3653 179.851 36.1132C179.269 38.8074 177.852 40.8505 175.601 42.2425C173.349 43.6346 170.432 44.3306 166.848 44.3306C164.611 44.3306 162.719 44.0085 161.173 43.3651C159.626 42.7218 158.462 41.8461 157.681 40.7383C156.9 39.6311 156.509 38.4033 156.509 37.0562C156.509 36.697 156.524 36.4275 156.555 36.2479C156.585 35.9785 156.685 35.7617 156.854 35.5968C157.022 35.4327 157.244 35.3498 157.52 35.3498H158.623C159.174 35.3498 159.45 35.6494 159.45 36.2479C159.388 37.146 159.603 38.0069 160.093 38.8299C160.583 39.6536 161.395 40.3271 162.528 40.8505C163.661 41.3747 165.102 41.6363 166.848 41.6363C169.757 41.6363 172.086 41.113 173.832 40.0647C175.578 39.0172 176.65 37.5803 177.048 35.754C177.14 35.3948 177.186 35.051 177.186 34.7212C177.186 33.8231 176.871 33.0675 176.244 32.4536C175.616 31.8404 174.735 31.2938 173.602 30.8146C172.468 30.3361 170.768 29.7074 168.502 28.9286C165.806 28.0306 163.861 27.0504 162.666 25.9875C161.472 24.9252 160.874 23.5402 160.874 21.8339C160.874 21.0558 160.95 20.3521 161.104 19.7234C161.625 17.3884 162.919 15.5179 164.987 14.1105C167.054 12.7037 169.742 12 173.051 12C175.133 12 176.887 12.3368 178.312 13.0103C179.736 13.6839 180.8 14.5448 181.505 15.5923C182.209 16.6405 182.562 17.7329 182.562 18.8702C182.562 19.1102 182.531 19.4393 182.47 19.8581C182.347 20.4573 182.026 20.7562 181.505 20.7562Z" fill="white"/>
<path d="M214.357 21.2053C214.419 21.0559 214.533 20.9064 214.702 20.7563C214.87 20.6068 215.093 20.5317 215.368 20.5317H216.471C216.992 20.5317 217.252 20.7268 217.252 21.1155C217.252 21.2355 217.19 21.4453 217.068 21.7441L206.087 42.759C205.872 43.1786 205.635 43.4705 205.375 43.6346C205.114 43.7995 204.784 43.8816 204.387 43.8816H203.514C202.717 43.8816 202.273 43.5076 202.181 42.759L200.16 25.067L190.648 42.759C190.25 43.5076 189.653 43.8816 188.856 43.8816H187.937C187.539 43.8816 187.248 43.7918 187.064 43.6122C186.881 43.4326 186.758 43.1484 186.697 42.759L184.721 21.5645C184.69 21.2656 184.767 21.0187 184.951 20.8236C185.135 20.6293 185.41 20.5317 185.778 20.5317H186.559C187.11 20.5317 187.416 20.7563 187.478 21.2053L189.178 39.8852L199.103 21.4298C199.409 20.8313 199.853 20.5317 200.435 20.5317H201.538C202.15 20.5317 202.487 20.8313 202.549 21.4298L204.617 39.8852L214.357 21.2053Z" fill="white"/>
<path d="M218.263 43.6121C218.048 43.7917 217.787 43.8815 217.482 43.8815H216.7C216.394 43.8815 216.164 43.7917 216.011 43.6121C215.858 43.4325 215.812 43.1932 215.873 42.8937L220.514 21.5196C220.575 21.2207 220.721 20.9807 220.951 20.8011C221.18 20.6215 221.448 20.5317 221.755 20.5317H222.536C222.842 20.5317 223.064 20.6215 223.202 20.8011C223.34 20.9807 223.378 21.2207 223.317 21.5196L218.676 42.8937C218.614 43.1932 218.477 43.4325 218.263 43.6121ZM224.879 15.4576C224.634 15.6372 224.358 15.727 224.052 15.727H222.306C222 15.727 221.77 15.6372 221.617 15.4576C221.463 15.278 221.417 15.0387 221.479 14.7391L221.893 13.0328C221.954 12.7339 222.091 12.4869 222.306 12.2919C222.52 12.0975 222.781 12 223.087 12H224.833C225.139 12 225.377 12.0975 225.545 12.2919C225.713 12.4869 225.767 12.7339 225.706 13.0328L225.293 14.7391C225.262 15.0387 225.124 15.278 224.879 15.4576Z" fill="white"/>
<path d="M224.833 51.4253C224.771 51.7242 224.634 51.9642 224.42 52.1438C224.205 52.3234 223.944 52.4132 223.639 52.4132H222.857C222.552 52.4132 222.322 52.3234 222.168 52.1438C222.015 51.9642 221.969 51.7242 222.03 51.4253L228.555 21.5196C228.616 21.2207 228.754 20.9807 228.969 20.8011C229.182 20.6215 229.443 20.5317 229.75 20.5317H230.531C230.837 20.5317 231.066 20.6215 231.22 20.8011C231.373 20.9807 231.419 21.2207 231.358 21.5196L230.898 23.63C232.001 22.4625 233.157 21.5799 234.367 20.9807C235.577 20.3822 237.116 20.0826 238.985 20.0826C241.803 20.0826 243.848 20.8685 245.119 22.4401C246.39 24.0117 247.026 26.0254 247.026 28.4796C247.026 29.4079 246.964 30.2308 246.842 30.9493C246.75 31.5485 246.567 32.3862 246.291 33.4639C245.464 36.5777 244.093 39.1667 242.179 41.2322C240.264 43.2978 237.622 44.3306 234.253 44.3306C230.791 44.3306 228.432 43.1483 227.177 40.7832L224.833 51.4253ZM228.417 35.8887C228.417 37.5656 228.892 38.9576 229.842 40.0647C230.791 41.1726 232.261 41.7262 234.253 41.7262C236.58 41.7262 238.51 40.9481 240.042 39.3912C241.573 37.835 242.707 35.8592 243.442 33.4639C243.656 32.7454 243.84 31.9077 243.994 30.9493C244.146 29.9614 244.223 29.1083 244.223 28.3898C244.223 24.5884 242.477 22.687 238.985 22.687C237.331 22.687 235.83 23.0765 234.482 23.8545C233.134 24.6333 232.031 25.6282 231.174 26.8406C230.316 28.053 229.719 29.3033 229.382 30.5901C229.167 31.4285 228.907 32.596 228.601 34.0926C228.478 34.8714 228.417 35.4698 228.417 35.8887Z" fill="white"/>
<path d="M267.886 22.1931C269.295 23.6006 270 25.591 270 28.1653C270 29.3931 269.877 30.5606 269.632 31.6678L269.495 32.3413C269.433 32.6409 269.28 32.8802 269.035 33.0598C268.79 33.2394 268.514 33.3292 268.208 33.3292H251.851C251.667 34.2574 251.575 35.1702 251.575 36.0683C251.575 39.8402 253.382 41.7262 256.997 41.7262C258.436 41.7262 259.662 41.5543 260.673 41.2098C261.683 40.866 262.434 40.499 262.924 40.1096C263.414 39.7209 263.889 39.2866 264.348 38.8074C264.685 38.4482 264.93 38.2237 265.084 38.1339C265.236 38.0441 265.497 37.9992 265.865 37.9992H266.6C266.876 37.9992 267.097 38.082 267.266 38.2461C267.434 38.411 267.473 38.6278 267.381 38.8972C267.197 39.5862 266.684 40.3496 265.842 41.1873C264.999 42.0258 263.827 42.7589 262.327 43.3876C260.825 44.0162 259.049 44.3306 256.997 44.3306C254.516 44.3306 252.517 43.5602 251 42.018C249.484 40.4766 248.726 38.4335 248.726 35.8887C248.726 35.2902 248.772 34.6616 248.864 34.0027C249.017 33.1047 249.277 31.9077 249.645 30.4105C250.441 27.3276 251.942 24.8354 254.148 22.934C256.353 21.0333 258.881 20.0826 261.729 20.0826C264.424 20.0826 266.477 20.7864 267.886 22.1931ZM267.335 28.1653C267.335 26.4891 266.868 25.1567 265.934 24.1689C264.999 23.181 263.597 22.687 261.729 22.687C260.228 22.687 258.827 23.0463 257.525 23.7647C256.223 24.4832 255.128 25.4641 254.24 26.7059C253.351 27.9485 252.739 29.318 252.402 30.8146H267.013C267.227 29.9467 267.335 29.0634 267.335 28.1653Z" fill="white"/>
<path d="M94.8011 13.6615C95.0768 13.3023 95.3446 13.0104 95.6052 12.7859C95.8651 12.5614 96.2556 12.4491 96.7768 12.4491H99.9013C100.238 12.4491 100.529 12.5691 100.774 12.8083C101.019 13.0483 101.142 13.3324 101.142 13.6615V42.6692C101.142 42.999 101.019 43.2831 100.774 43.5224C100.529 43.7623 100.238 43.8816 99.9013 43.8816H96.1795C95.8423 43.8816 95.5515 43.7623 95.3065 43.5224C95.061 43.2831 94.9389 42.999 94.9389 42.6692V25.1119L88.9657 35.2152C88.4753 35.9638 87.9089 36.3378 87.2656 36.3378H84.8763C84.233 36.3378 83.6659 35.9638 83.1762 35.2152L77.203 25.1119V42.6692C77.203 42.999 77.0802 43.2831 76.8354 43.5224C76.5899 43.7623 76.2991 43.8816 75.9624 43.8816H72.2406C71.9032 43.8816 71.6124 43.7623 71.3676 43.5224C71.122 43.2831 71 42.999 71 42.6692V13.6615C71 13.3324 71.122 13.0483 71.3676 12.8083C71.6124 12.5691 71.9032 12.4491 72.2406 12.4491H75.3651C75.8856 12.4491 76.2761 12.5614 76.5367 12.7859C76.7966 13.0104 77.0651 13.3023 77.3408 13.6615L86.071 28.4797L94.8011 13.6615Z" fill="white"/>
<path d="M122.944 22.5074C124.797 24.124 125.724 26.4442 125.724 29.4675V42.6691C125.724 42.9989 125.601 43.2831 125.356 43.5223C125.111 43.7623 124.82 43.8815 124.483 43.8815H120.991C120.654 43.8815 120.363 43.7623 120.118 43.5223C119.873 43.2831 119.751 42.9989 119.751 42.6691V41.1873C119.046 42.1457 118.074 42.9091 116.833 43.4774C115.592 44.0457 114.099 44.3306 112.353 44.3306C109.78 44.3306 107.743 43.6795 106.242 42.3773C104.741 41.0751 103.991 39.3912 103.991 37.3256C103.991 35.3204 104.718 33.7263 106.173 32.5434C107.628 31.3612 109.657 30.5452 112.261 30.0961L119.751 28.8388C119.751 27.7015 119.36 26.8561 118.579 26.3018C117.798 25.7482 116.748 25.4711 115.432 25.4711C114.727 25.4711 114.152 25.5686 113.709 25.7629C113.264 25.958 112.828 26.2499 112.399 26.6386C111.94 27.0581 111.434 27.2672 110.883 27.2672H106.61C106.303 27.2672 106.05 27.1704 105.851 26.9753C105.652 26.781 105.568 26.5488 105.599 26.2793C105.783 25.3518 106.265 24.4088 107.046 23.4504C107.827 22.4927 108.93 21.6922 110.354 21.0481C111.779 20.4047 113.471 20.0826 115.432 20.0826C118.586 20.0826 121.09 20.8909 122.944 22.5074ZM119.751 33.4639L113.502 34.5416C112.276 34.7514 111.38 35.058 110.814 35.4621C110.247 35.8662 109.964 36.4128 109.964 37.1011C109.964 37.7003 110.278 38.1563 110.906 38.4706C111.533 38.785 112.322 38.9421 113.272 38.9421C114.62 38.9421 115.783 38.7029 116.764 38.2237C117.744 37.7452 118.487 37.1235 118.993 36.3602C119.498 35.5968 119.751 34.7815 119.751 33.9129V33.4639Z" fill="white"/>
<path d="M135.511 51.2008C135.511 51.5299 135.388 51.814 135.143 52.054C134.898 52.2932 134.607 52.4132 134.27 52.4132H130.778C130.441 52.4132 130.15 52.2932 129.905 52.054C129.66 51.814 129.538 51.5299 129.538 51.2008V21.7441C129.538 21.415 129.66 21.1309 129.905 20.8909C130.15 20.6517 130.441 20.5317 130.778 20.5317H134.27C134.607 20.5317 134.898 20.6517 135.143 20.8909C135.388 21.1309 135.511 21.415 135.511 21.7441V22.7769C136.154 22.0584 137.042 21.4297 138.176 20.8909C139.309 20.3521 140.733 20.0826 142.449 20.0826C144.44 20.0826 146.194 20.5696 147.71 21.542C149.227 22.5152 150.413 23.8026 151.271 25.4037C152.128 27.0055 152.604 28.749 152.696 30.635C152.726 30.9346 152.742 31.4587 152.742 32.2066C152.742 32.9552 152.726 33.4793 152.696 33.7782C152.604 35.6642 152.128 37.4084 151.271 39.0095C150.413 40.6113 149.227 41.8988 147.71 42.8712C146.194 43.8444 144.44 44.3306 142.449 44.3306C140.764 44.3306 139.355 44.0611 138.222 43.5223C137.088 42.9835 136.184 42.3548 135.511 41.6364V51.2008V51.2008ZM145.252 27.1325C144.21 26.0254 142.817 25.4711 141.071 25.4711C139.539 25.4711 138.268 25.9131 137.257 26.7957C136.246 27.6791 135.664 28.9139 135.511 30.5003C135.48 30.7999 135.465 31.3689 135.465 32.2066C135.465 33.045 135.48 33.6141 135.511 33.9129C135.664 35.4397 136.253 36.6598 137.28 37.5726C138.306 38.4861 139.57 38.9421 141.071 38.9421C142.633 38.9421 143.92 38.4931 144.93 37.595C145.941 36.697 146.539 35.3204 146.722 33.4639C146.783 32.8654 146.814 32.4466 146.814 32.2066C146.814 29.932 146.293 28.2404 145.252 27.1325Z" fill="white"/>
<defs>
<radialGradient id="paint0_radial" cx="0" cy="0" r="1" gradientUnits="userSpaceOnUse" gradientTransform="translate(31.0151 21.026) scale(44.4069 44.5983)">
<stop stop-color="#D18E38"/>
<stop offset="1" stop-color="#BD4927"/>
</radialGradient>
<radialGradient id="paint1_radial" cx="0" cy="0" r="1" gradientUnits="userSpaceOnUse" gradientTransform="translate(32.1273 21.0197) scale(43.7366 43.9251)">
<stop stop-color="#D53924"/>
<stop offset="1" stop-color="#C30011"/>
</radialGradient>
<radialGradient id="paint2_radial" cx="0" cy="0" r="1" gradientUnits="userSpaceOnUse" gradientTransform="translate(30.3063 22.1747) scale(45.7671 45.9644)">
<stop stop-color="#6A9DB6"/>
<stop offset="1" stop-color="#2E55AF"/>
</radialGradient>
<radialGradient id="paint3_radial" cx="0" cy="0" r="1" gradientUnits="userSpaceOnUse" gradientTransform="translate(53.5939 20.383) scale(22.2688 22.3647)">
<stop stop-color="#9CAD4C"/>
<stop offset="1" stop-color="#73633D"/>
</radialGradient>
<radialGradient id="paint4_radial" cx="0" cy="0" r="1" gradientUnits="userSpaceOnUse" gradientTransform="translate(29.7655 20.5445) scale(45.701 45.8979)">
<stop stop-color="#71BEE6"/>
<stop offset="1" stop-color="#3871E4"/>
</radialGradient>
<radialGradient id="paint5_radial" cx="0" cy="0" r="1" gradientUnits="userSpaceOnUse" gradientTransform="translate(32.6259 20.8854) scale(42.4386 42.6216)">
<stop stop-color="#FF3924"/>
<stop offset="1" stop-color="#FF0011"/>
</radialGradient>
<radialGradient id="paint6_radial" cx="0" cy="0" r="1" gradientUnits="userSpaceOnUse" gradientTransform="translate(29.5644 31.3363) scale(29.3071 29.4334)">
<stop stop-color="#FDF240"/>
<stop offset="0.2407" stop-color="#FDDB3C"/>
<stop offset="0.7444" stop-color="#FCAF33"/>
<stop offset="1" stop-color="#FC9E30"/>
</radialGradient>
<linearGradient id="paint7_linear" x1="31.9607" y1="17.5249" x2="70.5469" y2="6.84612" gradientUnits="userSpaceOnUse">
<stop stop-color="#B2D25A"/>
<stop offset="0.2455" stop-color="#ACC457"/>
<stop offset="0.7116" stop-color="#9D9E51"/>
<stop offset="1" stop-color="#93834C"/>
</linearGradient>
<linearGradient id="paint8_linear" x1="31.133" y1="20.4049" x2="67.4476" y2="44.2748" gradientUnits="userSpaceOnUse">
<stop stop-color="#F9AB3E"/>
<stop offset="1" stop-color="#F7612D"/>
</linearGradient>
<radialGradient id="paint9_radial" cx="0" cy="0" r="1" gradientUnits="userSpaceOnUse" gradientTransform="translate(36.1557 38.4386) scale(67.2166 67.5064)">
<stop stop-color="#563924"/>
<stop offset="1" stop-color="#110011"/>
</radialGradient>
<radialGradient id="paint10_radial" cx="0" cy="0" r="1" gradientUnits="userSpaceOnUse" gradientTransform="translate(30.1758 21.4421) rotate(-64.6656) scale(65.4336 65.2558)">
<stop stop-color="#EDF7FB"/>
<stop offset="0.1904" stop-color="#EDF2FB"/>
<stop offset="0.4306" stop-color="#ECE2FB"/>
<stop offset="0.6976" stop-color="#EAC8FB"/>
<stop offset="0.9822" stop-color="#E7A4FB"/>
<stop offset="1" stop-color="#E7A2FB"/>
</radialGradient>
</defs>
</svg>
