<svg role="img" aria-labelledby="instagram-title" width="26px" height="26px" viewBox="0 0 26 26" version="1.1" xmlns="http://www.w3.org/2000/svg" xmlns:xlink="http://www.w3.org/1999/xlink">
    <title id="instagram-title">Instagram logo</title>
    <g role="presentation" id="C01.04_Footer" stroke="none" stroke-width="1" fill="none" fill-rule="evenodd">
        <g id="C01.01_Footer_Desktop" transform="translate(-1065.000000, -463.000000)" fill="#FFFFFF">
            <g id="C01.04_Footer-[DESKTOP]" transform="translate(0.000000, 431.000000)">
                <g id="Social-Icons" transform="translate(938.000000, 29.000000)">
                    <g id="Instagram" transform="translate(127.000000, 3.000000)">
                        <path d="M22.932,21.6378 C22.932,22.3506 22.3506,22.932 21.6378,22.932 L4.0104,22.932 C3.2958,22.932 2.718,22.3506 2.718,21.6378 L2.718,10.9728 L5.2488,10.9728 C5.1048,11.5668 5.0292,12.186 5.0292,12.825 C5.0292,17.1306 8.5176,20.6208 12.8232,20.6208 C17.1306,20.6208 20.619,17.1306 20.619,12.825 C20.619,12.186 20.5434,11.5668 20.3976,10.9728 L22.932,10.9728 L22.932,21.6378 Z M8.0964,10.9728 C8.8362,9.0846 10.6758,7.7454 12.8232,7.7454 C14.9724,7.7454 16.812,9.0846 17.5518,10.9728 C17.7786,11.547 17.9028,12.1716 17.9028,12.825 C17.9028,15.624 15.624,17.9028 12.8232,17.9028 C10.0242,17.9028 7.7454,15.624 7.7454,12.825 C7.7454,12.1716 7.8696,11.547 8.0964,10.9728 L8.0964,10.9728 Z M18.315,3.537 C18.315,3.1428 18.6354,2.8224 19.0314,2.8224 L22.1274,2.8224 C22.5216,2.8224 22.8438,3.1428 22.8438,3.537 L22.8438,6.6348 C22.8438,7.029 22.5216,7.3512 22.1274,7.3512 L19.0314,7.3512 C18.6354,7.3512 18.315,7.029 18.315,6.6348 L18.315,3.537 Z M21.6378,0 L4.0104,0 C1.7964,0 0,1.7964 0,4.0104 L0,21.6378 C0,23.8518 1.7964,25.6482 4.0104,25.6482 L21.6378,25.6482 C23.8536,25.6482 25.6482,23.8518 25.6482,21.6378 L25.6482,4.0104 C25.6482,1.7964 23.8536,0 21.6378,0 L21.6378,0 Z" id="Fill-1"></path>
                    </g>
                </g>
            </g>
        </g>
    </g>
</svg>