<svg role="img" aria-labelledby="twitter-title" width="29px" height="25px" viewBox="0 0 29 25" version="1.1" xmlns="http://www.w3.org/2000/svg" xmlns:xlink="http://www.w3.org/1999/xlink">
    <title id="twitter-title">Twitter logo</title>
    <g role="presentation" id="C01.04_Footer" stroke="none" stroke-width="1" fill="none" fill-rule="evenodd">
        <g id="C01.01_Footer_Desktop" transform="translate(-996.000000, -464.000000)" fill="#FFFFFF">
            <g id="C01.04_Footer-[DESKTOP]" transform="translate(0.000000, 431.000000)">
                <g id="Social-Icons" transform="translate(938.000000, 29.000000)">
                    <g id="Twitter" transform="translate(58.000000, 4.000000)">
                        <path d="M8.7815625,18.8959 C5.6894375,18.7844714 3.7573125,16.5113286 3.244375,14.6653286 C4.1053125,14.8324714 4.9535625,14.7990429 5.796375,14.5854714 C5.818125,14.5817571 5.8380625,14.5669 5.8815625,14.5464714 C4.2068125,14.1471857 2.9145,13.2297571 2.0173125,11.7477571 C1.421,10.7653286 1.1364375,9.68818571 1.1455,8.50704286 C1.9810625,8.96575714 2.8546875,9.22204286 3.7935625,9.24618571 C2.533875,8.31575714 1.68925,7.10118571 1.3430625,5.54675714 C1.0005,3.9979 1.2234375,2.52147143 1.982875,1.13047143 C5.2036875,5.01932857 9.2818125,7.15132857 14.2553125,7.50232857 C14.2190625,7.2609 14.1828125,7.04918571 14.15925,6.83375714 C13.9925,5.40004286 14.271625,4.0629 15.02925,2.84832857 C15.975375,1.32918571 17.3275,0.382042855 19.063875,0.0923285695 C21.064875,-0.243814288 22.812125,0.341185712 24.273,1.79347143 C24.370875,1.88818571 24.4524375,1.91975714 24.5901875,1.88818571 C25.8118125,1.61704286 26.966375,1.16575714 28.05025,0.525042855 C28.0774375,0.510185712 28.1028125,0.49532857 28.13,0.484185712 C28.1354375,0.478614284 28.1445,0.480471427 28.169875,0.480471427 C27.698625,1.89932857 26.8413125,2.99132857 25.6215,3.79732857 C26.77425,3.66918571 27.8744375,3.35532857 28.93475,2.88361428 C28.9438125,2.89475714 28.9510625,2.90404286 28.9583125,2.91147143 C28.73175,3.2179 28.510625,3.5299 28.275,3.82704286 C27.64425,4.62375714 26.91925,5.3239 26.1126875,5.93304286 C26.0438125,5.98318571 26.0111875,6.03332857 26.013,6.12432857 C26.045625,7.02875714 26.0111875,7.93318571 25.9024375,8.83204286 C25.6740625,10.7263286 25.1575,12.5333286 24.3690625,14.2586143 C23.5534375,16.0414714 22.4913125,17.6516143 21.1536875,19.0667571 C18.88625,21.4661857 16.1548125,23.0150429 12.9756875,23.7337571 C11.8845625,23.9807571 10.7789375,24.1051857 9.660625,24.1386143 C6.2295625,24.2407571 3.0576875,23.3679 0.1395625,21.5200429 C0.1015,21.4977571 0.06525,21.4699 0,21.4271857 C2.077125,21.6556143 4.0509375,21.3844714 5.95225,20.5877571 C6.9618125,20.1624714 7.89525,19.6071857 8.7815625,18.8959" id="Fill-1"></path>
                    </g>
                </g>
            </g>
        </g>
    </g>
</svg>