<svg role="img" aria-labelledby="facebook-title" width="14px" height="26px" viewBox="0 0 14 26" version="1.1" xmlns="http://www.w3.org/2000/svg" xmlns:xlink="http://www.w3.org/1999/xlink">
    <title id="facebook-title">Facebook logo</title>
    <g role="presentation" id="C01.04_Footer" stroke="none" stroke-width="1" fill="none" fill-rule="evenodd">
        <g id="C01.01_Footer_Desktop" transform="translate(-938.000000, -462.000000)" fill="#FFFFFF">
            <g id="C01.04_Footer-[DESKTOP]" transform="translate(0.000000, 431.000000)">
                <g id="Social-Icons" transform="translate(938.000000, 29.000000)">
                    <g id="Facebook" transform="translate(0.000000, 2.000000)">
                        <path d="M11.1632978,4.38804605 C11.9933848,4.36143854 12.8234718,4.38139417 13.6569889,4.38139417 L14,4.38139417 L14,0.19071058 C13.5558006,0.147473369 13.0927355,0.0859434907 12.6279554,0.0643248848 C11.7755727,0.0277395519 10.9214749,-0.0138346901 10.0690922,0.0044579764 C8.76736494,0.0310654913 7.53423986,0.338714882 6.45889991,1.08705124 C5.22405978,1.9501325 4.54661276,3.15744849 4.2893544,4.58593944 C4.18130589,5.17463071 4.153865,5.78327761 4.1384295,6.38360967 C4.11441872,7.32318753 4.13328433,8.2627654 4.13499939,9.20400624 L4.13499939,9.55655581 L0,9.55655581 L0,14.2361525 L4.11098861,14.2361525 L4.11098861,26 L9.13438687,26 L9.13438687,14.2561081 L13.231655,14.2561081 C13.4408918,12.6995685 13.6466985,11.1579956 13.8610805,9.55322987 C13.5317898,9.55322987 13.2350851,9.5515669 12.9400956,9.55322987 C11.7755727,9.55821878 9.10008575,9.55322987 9.10008575,9.55322987 C9.10008575,9.55322987 9.11209114,7.23338717 9.14124709,6.22729052 C9.18069337,4.84868865 10.0245008,4.42795732 11.1632978,4.38804605" id="Fill-1"></path>
                    </g>
                </g>
            </g>
        </g>
    </g>
</svg>