<?xml version="1.0" encoding="UTF-8" standalone="no"?>
<svg width="566px" height="165px" viewBox="0 0 566 165" version="1.1" xmlns="http://www.w3.org/2000/svg" xmlns:xlink="http://www.w3.org/1999/xlink">
    <!-- Generator: Sketch 3.7.2 (28276) - http://www.bohemiancoding.com/sketch -->
    <title>mapswipe-logo</title>
    <desc>Created with Sketch.</desc>
    <defs>
        <radialGradient cx="-372.998031%" cy="-46.4635421%" fx="-372.998031%" fy="-46.4635421%" r="942.523396%" id="radialGradient-1">
            <stop stop-color="#D18E38" offset="0%"></stop>
            <stop stop-color="#BD4927" offset="100%"></stop>
        </radialGradient>
        <radialGradient cx="330.492579%" cy="-9.18784186%" fx="330.492579%" fy="-9.18784186%" r="495.146298%" id="radialGradient-2">
            <stop stop-color="#D53924" offset="0%"></stop>
            <stop stop-color="#C30011" offset="100%"></stop>
        </radialGradient>
        <radialGradient cx="54.0413236%" cy="43.9228664%" fx="54.0413236%" fy="43.9228664%" r="94.3108332%" id="radialGradient-3">
            <stop stop-color="#6A9DB6" offset="0%"></stop>
            <stop stop-color="#2E55AF" offset="100%"></stop>
        </radialGradient>
        <radialGradient cx="109.484869%" cy="45.2332557%" fx="109.484869%" fy="45.2332557%" r="552.479184%" id="radialGradient-4">
            <stop stop-color="#9CAD4C" offset="0%"></stop>
            <stop stop-color="#73633D" offset="100%"></stop>
        </radialGradient>
        <radialGradient cx="372.793498%" cy="98.4206312%" fx="372.793498%" fy="98.4206312%" r="665.144677%" id="radialGradient-5">
            <stop stop-color="#71BEE6" offset="0%"></stop>
            <stop stop-color="#3871E4" offset="100%"></stop>
        </radialGradient>
        <radialGradient cx="72.4239612%" cy="-1.23990137%" fx="72.4239612%" fy="-1.23990137%" r="103.538858%" id="radialGradient-6">
            <stop stop-color="#FF3924" offset="0%"></stop>
            <stop stop-color="#FF0011" offset="100%"></stop>
        </radialGradient>
        <radialGradient cx="48.9015095%" cy="-34.305878%" fx="48.9015095%" fy="-34.305878%" r="80.5777601%" id="radialGradient-7">
            <stop stop-color="#FDF240" offset="0%"></stop>
            <stop stop-color="#FDDB3C" offset="24.07%"></stop>
            <stop stop-color="#FCAF33" offset="74.44%"></stop>
            <stop stop-color="#FC9E30" offset="100%"></stop>
        </radialGradient>
        <linearGradient x1="30.2943509%" y1="62.0673766%" x2="156.803469%" y2="13.2197641%" id="linearGradient-8">
            <stop stop-color="#B2D25A" offset="0%"></stop>
            <stop stop-color="#ACC457" offset="24.55%"></stop>
            <stop stop-color="#9D9E51" offset="71.16%"></stop>
            <stop stop-color="#93834C" offset="100%"></stop>
        </linearGradient>
        <linearGradient x1="-11.2893033%" y1="17.438204%" x2="170.549306%" y2="107.332397%" id="linearGradient-9">
            <stop stop-color="#F9AB3E" offset="0%"></stop>
            <stop stop-color="#F7612D" offset="100%"></stop>
        </linearGradient>
        <radialGradient cx="78.032632%" cy="62.6914712%" fx="78.032632%" fy="62.6914712%" r="260.519902%" id="radialGradient-10">
            <stop stop-color="#EDF7FB" offset="0%"></stop>
            <stop stop-color="#EDF2FB" offset="19.04%"></stop>
            <stop stop-color="#ECE2FB" offset="43.06%"></stop>
            <stop stop-color="#EAC8FB" offset="69.76%"></stop>
            <stop stop-color="#E7A4FB" offset="98.22%"></stop>
            <stop stop-color="#E7A2FB" offset="100%"></stop>
        </radialGradient>
    </defs>
    <g id="Page-1" stroke="none" stroke-width="1" fill="none" fill-rule="evenodd">
        <g id="mapswipe-logo">
            <text id="MapSwipe" font-family="Roboto-Medium, Roboto" font-size="86.4" font-weight="400" line-spacing="86.4" letter-spacing="-2.0999999" fill="#FFFFFF">
                <tspan x="186.097392" y="119.528131">Map</tspan>
                <tspan x="351.669268" y="119.528131" font-family="Roboto-Italic, Roboto" font-style="italic" font-weight="normal" letter-spacing="-2.1">Swipe</tspan>
            </text>
            <g id="logo_circle">
                <g id="Layer_1">
                    <g id="Layer_1_1_">
                        <ellipse id="whitecircle_1_" fill="#FFFFFF" cx="82.8968941" cy="82.4032759" rx="82.5970346" ry="82.4032759"></ellipse>
                        <g id="mapswipelogo_copy_2" transform="translate(7.203832, 8.983666)">
                            <g id="bgcolors_1_" transform="translate(0.000000, 4.791289)">
                                <path d="M141.97852,103.720018 C140.551561,106.669356 138.952311,109.469864 137.196977,112.11765 C137.852526,111.687033 138.362497,111.189936 138.732294,110.632051 C140.333345,107.994147 142.406848,104.436915 143.826904,101.696897 C149.182953,89.3811887 151.124085,82.3508711 151.346804,67.4185209 C151.421844,69.0667241 150.755789,70.4124773 149.275702,71.3875045 C149.324028,82.338294 146.982782,93.3798185 141.97852,103.720018" id="Shape" fill="url(#radialGradient-1)"></path>
                                <path d="M1.39003938,83.1507169 C2.0759042,86.0991561 3.08654178,90.0094465 3.96841086,92.9051815 C5.60458116,97.4158802 12.1846812,103.823031 22.2229207,110.711706 C21.2245897,101.843929 22.622133,91.0802995 26.5689324,79.3548185 C10.1808153,68.1075681 0.745296434,57.8314519 1.93813092,52.0232123 C0.773211283,58.1737296 -1.39454178,69.6216152 1.39003938,83.1507169" id="Shape" fill="url(#radialGradient-2)"></path>
                                <path d="M145.674086,48.5633031 C133.809675,67.9829946 36.5948654,13.3257713 44.8591613,0.0218602541 C41.4736605,1.51284936 37.8195168,3.42696915 33.9624651,5.94898367 C28.2402214,10.041343 27.049488,10.893294 21.9647834,15.752559 C16.7185929,21.4655717 16.5147845,21.6886661 13.9961448,25.2141561 C9.66484087,31.8659619 9.49615114,32.1255898 7.55381799,36.1134392 C6.31505907,38.9627586 4.72871527,42.7936933 3.68566046,45.7202722 C1.14420862,54.0014156 21.8059989,72.1433303 54.0527515,89.0790381 C90.3468568,108.140581 127.572658,118.455626 137.196977,112.117949 C138.952311,109.470163 140.551561,106.669655 141.97852,103.720318 C150.522565,86.0638203 151.305682,66.3653358 145.674086,48.5633031 L145.674086,48.5633031 Z" id="Shape" fill="url(#radialGradient-3)"></path>
                                <path d="M148.807753,65.370245 C150.349673,64.3550907 151.268162,62.9192015 151.055349,61.1485209 C150.7756,59.2002632 150.453228,56.5941016 150.089135,54.6599183 C148.047148,45.8807804 146.548151,40.7585935 141.63844,31.7512704 L139.160321,27.6840653 C140.932464,30.3393376 140.787787,32.4298367 138.975723,33.623167 C144.49746,43.4000907 147.701365,54.1700091 149.107913,65.370245" id="Shape" fill="url(#radialGradient-4)"></path>
                            </g>
                            <g id="fgcolors_1_">
                                <path d="M13.5236935,46.769265 C10.8222565,46.769265 7.50519212,46.7348276 5.76456626,47.8805445 C4.69119532,48.5872595 4.00593081,49.4718512 3.68626078,50.5118603 C4.76623523,47.5984574 6.27873976,43.738176 7.55381799,40.9050272 C11.3997637,33.7145009 11.473603,33.5770508 13.9961448,30.0057441 C18.8509271,23.7201724 18.9427759,23.5997913 21.9650836,20.544147 C22.8631613,19.709265 23.6363725,18.9905717 24.3294412,18.3530309 C24.3294412,18.3527314 13.5236935,34.0334211 13.5236935,46.769265 L13.5236935,46.769265 Z" id="Shape" fill="url(#radialGradient-5)"></path>
                                <path d="M95.1061884,127.937886 C88.5113805,122.304229 78.8288302,115.915944 67.0751783,109.742368 C40.0959276,95.5730309 12.4251091,87.904274 5.26990314,92.6165064 C3.5469867,93.7505445 3.17058648,95.4987659 3.96841086,97.6967695 C3.10725279,94.7956443 2.05549335,90.8952359 1.39003938,87.9429038 C0.244630122,80.5155082 -1.18172858,71.2731125 1.93813092,56.8153993 C2.18426184,55.608294 2.89323896,54.5937387 4.09207664,53.8040744 C13.5783225,47.5583303 50.2644364,57.7239474 86.0332624,76.5096915 C101.61395,84.6932123 114.452979,93.1624138 123.19573,100.63353 C115.460015,111.712486 105.707227,121.048612 95.1061884,127.937886" id="Shape" fill="url(#radialGradient-6)"></path>
                                <path d="M102.970071,143.929111 C106.472935,141.623004 104.409937,136.777813 98.2254476,130.770735 C109.323851,124.331842 119.432928,115.319428 127.33223,104.387505 C134.613503,111.462142 137.584483,117.32039 134.904958,120.684474 C132.638452,123.309501 129.491578,126.704129 127.029969,129.146488 C121.11052,134.183929 120.99736,134.280953 117.418557,136.654437 C112.890048,139.634918 108.039168,142.07069 102.970071,143.929111 M65.1277424,147.066207 C76.076066,149.089628 87.1039319,148.552704 97.4195189,145.707877 C104.027234,141.358884 89.1861394,127.223085 64.2722874,114.138376 C50.8857669,107.108058 37.3158489,101.811887 26.6004492,99.0889383 C27.4727131,109.299474 29.9244172,118.709564 33.9075359,126.514274 C38.632049,127.714492 44.614231,130.049646 50.5147696,133.148412 C61.4982118,138.917123 68.0407919,145.148194 65.1277424,147.066207" id="Shape" fill="url(#radialGradient-7)"></path>
                                <path d="M59.4937456,11.1571143 C66.4571495,5.24915608 73.8861011,1.49817604 81.1991911,0.1703902 C89.9911676,2.40372958 101.123489,6.74912886 112.10393,12.516343 C125.709567,19.6616515 135.652356,27.1887659 139.181633,32.4756534 L141.659151,36.5428584 C145.446265,43.8283122 147.905173,49.0058984 150.111046,59.4515064 C150.411206,61.3964701 150.861445,63.9840653 151.07606,65.9401089 C150.132658,58.1048548 132.895389,43.7127223 107.174708,30.2045826 C90.232496,21.3062613 73.0576605,14.6026497 59.4937456,11.1571143" id="Shape" fill="url(#linearGradient-8)"></path>
                                <path d="M91.5075742,72.283775 C93.0008685,69.3799546 94.4647472,66.4464882 95.8914061,63.4977495 C100.895668,53.156951 104.901599,43.7399728 107.816449,35.6843194 C133.854099,49.6808711 150.995917,64.3562886 151.353107,72.1978312 C151.091068,86.2704446 149.474708,93.6388475 143.833207,106.475907 C142.378033,109.19676 140.375368,112.795617 138.739197,115.411062 C143.692132,107.963004 123.812858,89.6495009 91.5075742,72.283775" id="Shape" fill="url(#linearGradient-9)"></path>
                            </g>
                        </g>
                        <g id="magni" transform="translate(24.913252, 8.983666)">
                            <path d="M5.39266844,22.4953993 C2.48472166,27.7745009 0.745296434,33.4704446 0.226620543,39.425118 C-1.24986482,56.3563339 7.43975732,72.5853267 22.3657967,80.7706443 C35.176611,87.7961706 50.0459202,87.601824 62.2447089,81.5668966 L65.8271144,88.0551996 C64.861801,89.652196 64.7486408,91.7022686 65.7145546,93.4534846 L83.9684641,126.518167 C85.4101309,129.133013 88.704083,130.084083 91.3235764,128.644002 C92.9693518,127.740245 93.9562767,126.110907 94.1072571,124.373766 C94.1994061,123.345136 93.9931964,122.277877 93.4568111,121.305245 L75.2017009,88.2390653 C74.2348866,86.4887477 72.4375306,85.4885662 70.5702374,85.4490381 L66.9353039,78.8664065 C72.526678,75.1612432 77.326231,70.1010436 80.7765663,63.8382305 C83.686314,58.5597278 85.4239383,52.863784 85.942314,46.9097096 C87.4193997,29.9775953 78.7291772,13.7495009 63.8031378,5.5641833 C43.0209835,-5.83459165 16.8173454,1.761098 5.39266844,22.4953993 L5.39266844,22.4953993 Z" id="frame" fill="#000000"></path>
                            <path d="M68.71405,15.7247096 C79.6065439,25.8501996 83.4885088,41.4614156 78.6037105,55.4956987 C76.8867972,60.4256352 74.1913635,64.881833 70.5930495,68.7355263 C56.4606323,83.8676134 32.6234529,84.7072868 17.4569856,70.6077223 C6.56419159,60.4831307 2.68222672,44.8722142 7.56792549,30.8376316 C9.28483874,25.905 11.9796722,21.4508984 15.5788866,17.5969056 C29.7107036,2.46541742 53.5463821,1.62664247 68.71405,15.7247096 L68.71405,15.7247096 Z" id="lens_1_" fill="url(#radialGradient-10)"></path>
                            <g id="human_2_" transform="translate(14.707823, 21.560799)" fill="#5598E5">
                                <path d="M34.9361831,9.03846642 C43.0098776,7.8903539 50.4883555,13.4895735 51.6391676,21.5446279 C52.7902799,29.5999819 47.1781948,37.0606171 39.1048004,38.2087296 C31.0302054,39.357441 23.5514274,33.7585209 22.4006152,25.7034664 C21.2495029,17.6481125 26.8615881,10.1871779 34.9361831,9.03846642 L34.9361831,9.03846642 Z" id="head_2_"></path>
                                <path d="M25.0390186,38.0329492 C22.5341863,36.5635209 17.6712996,33.7010254 14.9410474,29.3370599 C11.2211687,23.5027677 8.02266738,14.1690381 10.6766791,6.63054446 C11.5579478,4.12799456 10.2399468,1.38588022 7.72971155,0.505780399 C5.21947632,-0.373421053 2.47091432,0.942686025 1.59054604,3.44673321 C-2.26710591,14.3981216 1.79045237,27.7044283 7.82426184,36.0694192 C10.2228377,41.3940381 11.7380436,48.6890744 13.1977201,55.9197278 C25.8428462,61.4746279 40.8790442,59.7093376 51.921918,50.8490472 C45.6152634,43.5240653 34.1026397,43.35098 25.0390186,38.0329492 L25.0390186,38.0329492 Z" id="body"></path>
                            </g>
                        </g>
                    </g>
                </g>
            </g>
        </g>
    </g>
</svg>