<?xml version="1.0" encoding="UTF-8" standalone="no"?>
<!-- Created with Inkscape (http://www.inkscape.org/) -->

<svg
   xmlns:dc="http://purl.org/dc/elements/1.1/"
   xmlns:cc="http://creativecommons.org/ns#"
   xmlns:rdf="http://www.w3.org/1999/02/22-rdf-syntax-ns#"
   xmlns:svg="http://www.w3.org/2000/svg"
   xmlns="http://www.w3.org/2000/svg"
   version="1.1"
   width="260"
   height="60"
   id="svg5219">
  <defs
     id="defs5221" />
  <metadata
     id="metadata5224">
    <rdf:RDF>
      <cc:Work
         rdf:about="">
        <dc:format>image/svg+xml</dc:format>
        <dc:type
           rdf:resource="http://purl.org/dc/dcmitype/StillImage" />
        <dc:title></dc:title>
      </cc:Work>
    </rdf:RDF>
  </metadata>
  <g
     transform="translate(-30.268839,-658.14906)"
     id="layer1">
    <path
       d="m 70.635714,679.55093 0,-17.18875 -17.1875,0 0,17.18875 -17.19625,0 0,17.19501 17.19625,0 0,17.19 17.1875,0 0,-17.19 17.195,0 0,-17.19501 -17.195,0 z"
       id="path3269"
       style="fill:#ee3124;fill-opacity:1;fill-rule:nonzero;stroke:none" />
    <path
       d="m 105.00585,682.48368 3.535,0 c 1.34875,0 2.6025,0.3425 2.6025,1.97875 0,1.45 -0.99125,2.0525 -2.3125,2.0525 l -3.825,0 0,-4.03125 z m -3.78375,14.26125 8.3325,0 c 3.10375,0 6.07125,-1.49875 6.07125,-4.9875 0,-2.14 -1.06125,-3.7575 -3.16,-4.35625 1.49625,-0.725 2.3375,-1.90625 2.3375,-3.59 0,-3.20375 -2.2175,-4.26251 -5.4875,-4.26251 l -8.09375,0 0,17.19625 z m 3.78375,-7.665 4.1125,0 c 1.6175,0 2.72625,0.70125 2.72625,2.45625 0,1.7825 -1.3,2.27 -2.8,2.27 l -4.03875,0 0,-4.72626 z"
       id="path3281"
       style="fill:#000000;fill-opacity:1;fill-rule:nonzero;stroke:none" />
    <path
       d="m 117.21534,684.29029 3.2525,0 0,2.31124 0.0475,0 c 0.6225,-1.55999 2.3125,-2.64374 3.97,-2.64374 0.2425,0 0.53375,0.05 0.755,0.12375 l 0,3.1725 c -0.31875,-0.0638 -0.8275,-0.11375 -1.22875,-0.11375 -2.505,0 -3.38,1.80499 -3.38,3.99125 l 0,5.6125 -3.41625,0 0,-12.45375 z"
       id="path3285"
       style="fill:#000000;fill-opacity:1;fill-rule:nonzero;stroke:none" />
    <path
       d="m 130.22484,682.36693 -3.425,0 0,-2.8175 3.425,0 0,2.8175 z m -3.425,1.92375 3.425,0 0,12.45375 -3.425,0 0,-12.45375 z"
       id="path3287"
       style="fill:#000000;fill-opacity:1;fill-rule:nonzero;stroke:none" />
    <path
       d="m 137.49245,684.29029 2.50375,0 0,2.29499 -2.50375,0 0,6.15625 c 0,1.15375 0.28,1.4475 1.435,1.4475 0.3675,0 0.7125,-0.0263 1.06875,-0.0987 l 0,2.67876 c -0.57875,0.0937 -1.32125,0.11749 -2.0025,0.11749 -2.09,0 -3.92875,-0.485 -3.92875,-2.96624 l 0,-7.33501 -2.07125,0 0,-2.29499 2.07125,0 0,-3.7275 3.4275,0 0,3.7275 z"
       id="path3291"
       style="fill:#000000;fill-opacity:1;fill-rule:nonzero;stroke:none" />
    <path
       d="m 145.87234,682.36693 -3.42625,0 0,-2.8175 3.42625,0 0,2.8175 z m -3.42625,1.92375 3.42625,0 0,12.45375 -3.42625,0 0,-12.45375 z"
       id="path3293"
       style="fill:#000000;fill-opacity:1;fill-rule:nonzero;stroke:none" />
    <path
       d="m 150.62108,692.69303 c 0.025,1.49626 1.27625,2.09875 2.62625,2.09875 0.98625,0 2.24125,-0.38374 2.24125,-1.585 0,-1.0425 -1.42625,-1.39874 -3.885,-1.9275 -1.97625,-0.44 -3.955,-1.12875 -3.955,-3.32875 0,-3.17375 2.75125,-3.9925 5.43,-3.9925 2.7,0 5.20875,0.91125 5.4775,3.96875 l -3.24125,0 c -0.0962,-1.325 -1.10625,-1.6825 -2.33375,-1.6825 -0.78375,0 -1.9175,0.14751 -1.9175,1.15625 0,1.22626 1.94,1.39875 3.885,1.8525 1.985,0.455 3.95125,1.17875 3.95125,3.48875 0,3.27875 -2.85125,4.33625 -5.67625,4.33625 -2.89875,0 -5.72375,-1.08125 -5.87,-4.385 l 3.2675,0 z"
       id="path3297"
       style="fill:#000000;fill-opacity:1;fill-rule:nonzero;stroke:none" />
    <path
       d="m 160.30371,679.54904 3.4175,0 0,6.475 0.0737,0 c 0.86125,-1.38999 2.36,-2.06624 3.6375,-2.06624 3.63375,0 4.5425,2.0425 4.5425,5.12249 l 0,7.66376 -3.4175,0 0,-7.03625 c 0,-2.04 -0.61375,-3.0575 -2.1825,-3.0575 -1.8675,0 -2.65375,1.03999 -2.65375,3.56875 l 0,6.525 -3.4175,0 0,-17.19501 z"
       id="path3301"
       style="fill:#000000;fill-opacity:1;fill-rule:nonzero;stroke:none" />
    <path
       d="m 175.72371,696.74455 3.78375,0 0,-6.7175 3.78375,0 c 1.89125,0 2.5925,0.7925 2.85125,2.6 0.195,1.365 0.14625,3.03 0.6125,4.1175 l 3.7825,0 c -0.68625,-0.96875 -0.66,-2.98626 -0.735,-4.07501 -0.1175,-1.735 -0.64,-3.53875 -2.5025,-4.01874 l 0,-0.05 c 1.91375,-0.7725 2.72625,-2.2825 2.72625,-4.31 0,-2.595 -1.945,-4.74125 -5.03875,-4.74125 l -9.26375,0 0,17.195 z m 3.78375,-14.26126 4.12875,0 c 1.69375,0 2.60375,0.72626 2.60375,2.38626 0,1.73249 -0.91,2.45624 -2.60375,2.45624 l -4.12875,0 0,-4.8425 z"
       id="path3305"
       style="fill:#000000;fill-opacity:1;fill-rule:nonzero;stroke:none" />
    <path
       d="m 203.4666,691.35203 c 0.24375,-3.83124 -1.80625,-7.39499 -6.04125,-7.39499 -3.78625,0 -6.36125,2.84124 -6.36125,6.57375 0,3.85375 2.42875,6.5475 6.36125,6.5475 2.815,0 4.8625,-1.25375 5.82125,-4.18875 l -3.00625,0 c -0.21625,0.77125 -1.325,1.60874 -2.6925,1.60874 -1.90875,0 -2.9675,-0.98249 -3.065,-3.14625 l 8.98375,0 z m -8.98375,-2.1725 c 0.05,-0.95875 0.67875,-2.64125 2.8425,-2.64125 1.6625,0 2.40625,0.91 2.72375,2.64125 l -5.56625,0 z"
       id="path3309"
       style="fill:#000000;fill-opacity:1;fill-rule:nonzero;stroke:none" />
    <path
       d="m 214.13308,696.74455 3.2475,0 0,-17.19501 -3.4175,0 0,6.265 -0.0475,0 0.025,0 c -0.7925,-1.22875 -2.24125,-1.85625 -3.71,-1.85625 -3.6625,0 -5.5125,3.10875 -5.5125,6.44875 0,3.4425 1.8275,6.67125 5.58625,6.67125 1.59125,0 2.98875,-0.57875 3.77875,-1.93 l 0.05,0 0,1.59626 z m -0.05,-6.26251 c 0,2.04875 -0.67125,4.01625 -2.935,4.01625 -2.12125,0 -3.015,-2.03999 -3.015,-3.99125 0,-2.0525 0.77125,-3.96875 3.015,-3.96875 2.21625,0 2.935,1.91625 2.935,3.94375"
       id="path3313"
       style="fill:#000000;fill-opacity:1;fill-rule:nonzero;stroke:none" />
    <path
       d="m 232.1861,685.33518 c -0.24,-1.72 -1.88125,-3.01251 -3.75125,-3.01251 -3.39625,0 -4.67625,2.88875 -4.67625,5.89751 0,2.86249 1.28,5.74875 4.67625,5.74875 2.3075,0 3.6075,-1.58376 3.8975,-3.84501 l 3.6625,0 c -0.3875,4.28376 -3.3525,7.02751 -7.56,7.02751 -5.32625,0 -8.45875,-3.9675 -8.45875,-8.93125 0,-5.11 3.1325,-9.0775 8.45875,-9.0775 3.7775,0 6.95625,2.21375 7.41625,6.1925 l -3.665,0 z"
       id="path3317"
       style="fill:#000000;fill-opacity:1;fill-rule:nonzero;stroke:none" />
    <path
       d="m 237.60846,684.29029 3.25375,0 0,2.31124 0.0463,0 c 0.62125,-1.55999 2.30875,-2.64374 3.97125,-2.64374 0.24125,0 0.5325,0.05 0.75,0.12375 l 0,3.1725 c -0.31625,-0.0638 -0.82375,-0.11375 -1.22875,-0.11375 -2.50625,0 -3.37375,1.80499 -3.37375,3.99125 l 0,5.6125 -3.41875,0 0,-12.45375 z"
       id="path3321"
       style="fill:#000000;fill-opacity:1;fill-rule:nonzero;stroke:none" />
    <path
       d="m 246.03984,690.53117 c 0,3.945 2.53,6.5475 6.4325,6.5475 3.9225,0 6.4525,-2.6025 6.4525,-6.5475 0,-3.9675 -2.53,-6.57375 -6.4525,-6.57375 -3.9025,0 -6.4325,2.60625 -6.4325,6.57375 m 3.42,0 c 0,-2.00375 0.7,-3.9925 3.0125,-3.9925 2.33,0 3.02875,1.98875 3.02875,3.9925 0,1.97625 -0.69875,3.96625 -3.02875,3.96625 -2.3125,0 -3.0125,-1.99 -3.0125,-3.96625"
       id="path3325"
       style="fill:#000000;fill-opacity:1;fill-rule:nonzero;stroke:none" />
    <path
       d="m 263.31159,692.69303 c 0.025,1.49626 1.27625,2.09875 2.6225,2.09875 0.98625,0 2.24,-0.38374 2.24,-1.585 0,-1.0425 -1.42375,-1.39874 -3.875,-1.9275 -1.97375,-0.44 -3.95125,-1.12875 -3.95125,-3.32875 0,-3.17375 2.745,-3.9925 5.41375,-3.9925 2.72375,0 5.23,0.91125 5.49375,3.96875 l -3.2525,0 c -0.0962,-1.325 -1.11,-1.6825 -2.3375,-1.6825 -0.76375,0 -1.895,0.14751 -1.895,1.15625 0,1.22626 1.91875,1.39875 3.8725,1.8525 1.99875,0.455 3.95125,1.17875 3.95125,3.48875 0,3.27875 -2.845,4.33625 -5.685,4.33625 -2.88875,0 -5.705,-1.08125 -5.85,-4.385 l 3.2525,0 z"
       id="path3329"
       style="fill:#000000;fill-opacity:1;fill-rule:nonzero;stroke:none" />
    <path
       d="m 276.00196,692.69303 c 0.025,1.49626 1.2775,2.09875 2.62,2.09875 0.99125,0 2.24125,-0.38374 2.24125,-1.585 0,-1.0425 -1.42125,-1.39874 -3.8725,-1.9275 -1.975,-0.44 -3.95125,-1.12875 -3.95125,-3.32875 0,-3.17375 2.7475,-3.9925 5.41375,-3.9925 2.725,0 5.2275,0.91125 5.49625,3.96875 l -3.2525,0 c -0.0975,-1.325 -1.10875,-1.6825 -2.33625,-1.6825 -0.77,0 -1.89875,0.14751 -1.89875,1.15625 0,1.22626 1.92,1.39875 3.87375,1.8525 1.99875,0.455 3.95,1.17875 3.95,3.48875 0,3.27875 -2.84375,4.33625 -5.68875,4.33625 -2.88125,0 -5.7025,-1.08125 -5.8475,-4.385 l 3.2525,0 z"
       id="path3333"
       style="fill:#000000;fill-opacity:1;fill-rule:nonzero;stroke:none" />
  </g>
</svg>
